<?xml version="1.0" standalone="no"?>
<!DOCTYPE svg PUBLIC "-//W3C//DTD SVG 20010904//EN"
 "http://www.w3.org/TR/2001/REC-SVG-20010904/DTD/svg10.dtd">
<svg version="1.0" xmlns="http://www.w3.org/2000/svg"
 width="1024.000000pt" height="1024.000000pt" viewBox="0 0 1024.000000 1024.000000"
 preserveAspectRatio="xMidYMid meet">
<metadata>
Created by potrace 1.14, written by Peter Selinger 2001-2017
</metadata>
<g transform="translate(0.000000,1024.000000) scale(0.100000,-0.100000)"
fill="#000000" stroke="none">
<path d="M5242 9221 c-11 -7 -17 -31 -21 -88 -1 -7 -8 -13 -16 -13 -8 0 -15
-7 -15 -15 0 -8 -7 -15 -15 -15 -8 0 -15 -7 -15 -15 0 -8 -7 -15 -15 -15 -8 0
-15 -9 -15 -20 0 -11 -7 -20 -15 -20 -8 0 -15 -5 -15 -11 0 -5 -5 -7 -11 -4
-6 4 -13 -2 -16 -14 -3 -12 -10 -21 -15 -21 -15 0 -58 -52 -51 -63 3 -5 1 -7
-4 -4 -6 4 -13 0 -17 -8 -3 -8 -12 -15 -21 -15 -9 0 -15 -9 -15 -25 0 -18 5
-25 18 -25 10 0 24 -11 31 -24 7 -13 24 -30 37 -37 13 -7 24 -19 24 -26 0 -8
5 -11 10 -8 6 3 14 -5 20 -19 5 -14 16 -26 25 -26 8 0 15 -7 15 -15 0 -8 7
-15 15 -15 8 0 15 -7 15 -15 0 -9 6 -12 15 -9 11 4 15 0 15 -16 0 -16 4 -20
15 -16 9 3 15 0 15 -9 0 -8 5 -15 10 -15 6 0 10 -7 10 -15 0 -17 27 -20 50 -5
8 5 15 15 15 22 0 7 10 14 23 16 15 2 22 8 18 18 -3 8 4 19 17 25 28 16 47 35
47 48 0 6 4 11 9 11 14 0 81 65 81 78 0 6 9 14 21 17 46 15 83 85 44 85 -8 0
-15 9 -15 21 0 11 -4 18 -9 14 -5 -3 -18 8 -27 25 -10 16 -25 30 -32 30 -9 0
-12 6 -8 17 4 10 4 14 0 11 -10 -11 -44 11 -44 28 0 8 -4 12 -10 9 -5 -3 -10
-1 -10 5 0 6 -4 9 -9 6 -5 -4 -15 7 -23 24 -7 16 -19 30 -25 30 -7 0 -13 5
-13 10 0 6 -7 10 -15 10 -11 0 -15 11 -15 43 0 58 -29 83 -68 58z"/>
<path d="M3899 9183 c-1 -1 -2 -7 -3 -12 0 -5 -13 -21 -28 -35 -28 -25 -28
-26 -28 -156 l0 -130 -50 0 c-43 0 -50 -3 -50 -20 0 -11 -6 -20 -14 -20 -8 0
-16 -7 -20 -15 -3 -8 -12 -15 -21 -15 -10 0 -15 -9 -15 -27 0 -14 -3 -24 -6
-20 -8 8 -28 -12 -37 -36 -4 -10 -11 -15 -17 -12 -13 8 -30 -36 -30 -76 0 -37
-22 -47 -113 -46 -37 0 -70 -3 -74 -6 -3 -4 -6 -41 -6 -82 l1 -74 -87 -3 c-50
-2 -85 -7 -84 -13 1 -5 -5 -14 -13 -18 -10 -6 -14 -27 -14 -72 l0 -65 -100 0
-100 0 0 -95 0 -95 -100 0 c-94 0 -100 -1 -100 -21 0 -16 -4 -19 -20 -14 -14
5 -20 2 -20 -9 0 -9 -7 -16 -16 -16 -8 0 -12 -4 -9 -10 3 -5 -3 -10 -14 -10
-13 0 -21 -8 -23 -22 -2 -15 -11 -24 -25 -26 -13 -2 -23 -10 -23 -18 0 -8 -6
-14 -13 -14 -9 0 -13 -27 -13 -107 l-1 -108 -96 -3 -96 -3 3 -88 3 -88 -176 0
c-97 0 -183 -4 -191 -7 -14 -6 -15 5 -8 84 3 49 9 94 12 99 4 5 42 9 87 9 44
0 82 2 85 5 2 2 5 45 6 96 l2 91 93 0 92 0 3 93 3 92 87 3 87 3 6 47 c10 71
10 75 2 105 l-7 27 -185 0 -185 0 0 -95 0 -95 -95 0 -95 0 0 -89 0 -89 -52 -4
c-29 -1 -70 -2 -90 0 l-38 3 0 90 0 89 -95 0 -95 0 0 -90 0 -90 83 0 c45 0 88
-4 95 -8 9 -6 12 -33 10 -98 l-3 -89 -92 -3 -93 -3 -1 -59 c-2 -108 -11 -140
-38 -140 -31 0 -111 -31 -111 -44 0 -6 -9 -19 -20 -29 -14 -12 -20 -29 -20
-57 l0 -40 -90 0 c-57 0 -90 -4 -90 -11 0 -5 -3 -8 -7 -6 -5 3 -7 -178 -6
-401 2 -224 3 -438 3 -477 l0 -70 98 1 c103 1 135 -3 127 -15 -2 -4 5 -17 15
-29 11 -12 20 -24 20 -27 0 -3 9 -14 20 -25 11 -11 20 -18 20 -15 0 3 18 -13
41 -35 22 -21 38 -44 34 -50 -3 -5 -2 -10 2 -10 5 0 9 -41 9 -91 l0 -91 -90 3
-91 3 -3 -132 c-3 -147 -6 -153 -64 -133 -26 9 -34 9 -40 -4 -5 -8 -18 -15
-28 -15 -13 0 -20 -7 -20 -20 0 -13 -7 -20 -20 -20 -20 0 -21 -1 -23 -93 -1
-19 -6 -27 -17 -26 -30 3 -40 -1 -40 -16 0 -8 -7 -15 -15 -15 -8 0 -15 -9 -15
-20 0 -14 -6 -20 -17 -18 -12 2 -19 -4 -21 -19 -2 -14 -8 -20 -18 -16 -9 3
-14 -2 -14 -16 0 -19 -10 -26 -33 -22 -5 1 -11 -7 -14 -18 -3 -11 -13 -23 -24
-26 -10 -4 -16 -12 -13 -20 4 -9 -3 -16 -20 -21 -14 -3 -26 -13 -26 -20 0 -8
-8 -18 -17 -22 -20 -8 -23 -18 -28 -114 -2 -49 0 -68 9 -68 8 0 12 -23 11 -77
0 -79 1 -84 44 -130 24 -25 24 -30 23 -167 -1 -77 -3 -196 -4 -263 -2 -68 0
-123 3 -123 15 0 22 -64 24 -215 2 -88 3 -162 4 -165 0 -3 49 -6 108 -7 58 -1
110 -6 115 -11 6 -6 10 -51 9 -101 0 -84 2 -93 25 -119 14 -15 29 -27 34 -27
12 0 65 -56 65 -69 0 -6 10 -12 23 -14 12 -2 22 -9 22 -17 0 -19 71 -30 85
-12 15 20 61 29 77 15 7 -7 25 -19 41 -27 15 -8 30 -25 33 -38 4 -12 11 -20
16 -17 14 9 28 -15 28 -46 0 -23 20 -50 45 -59 6 -2 18 -17 27 -33 14 -22 19
-59 23 -156 l5 -127 -92 5 -92 5 0 118 0 117 -93 0 -93 0 0 -185 0 -185 26 0
c17 0 28 -6 31 -20 3 -13 14 -20 29 -20 19 0 24 -5 24 -25 0 -27 31 -48 38
-27 7 22 20 12 27 -21 3 -17 6 -80 6 -140 l-1 -107 95 0 95 0 1 -42 c2 -132
19 -198 51 -198 9 0 20 -9 23 -20 3 -11 11 -20 16 -20 5 0 9 -7 9 -15 0 -8 9
-15 20 -15 11 0 20 -7 20 -15 0 -14 12 -19 33 -16 4 0 7 -8 7 -19 0 -11 7 -20
15 -20 8 0 15 -7 15 -15 0 -14 5 -17 39 -19 11 -1 13 -21 12 -94 l-2 -93 153
1 c219 2 205 4 212 -25 4 -15 18 -30 32 -35 14 -6 28 -19 31 -30 3 -11 12 -20
19 -20 8 0 14 -7 14 -15 0 -7 7 -18 17 -23 13 -8 16 -27 17 -98 l1 -89 90 -5
91 -5 -2 -35 c-1 -19 -3 -55 -4 -80 -5 -74 5 -90 53 -91 263 -6 767 4 804 16
19 6 20 10 10 27 -9 15 -9 22 -1 25 6 2 9 15 6 28 -2 14 0 31 5 38 6 6 13 24
17 39 3 16 11 28 16 28 6 0 10 6 10 13 0 7 16 21 35 30 19 9 35 21 35 27 0 5
11 10 25 10 l24 0 0 -136 c-1 -74 2 -138 4 -141 5 -4 2684 -9 2842 -5 28 1 68
1 90 1 205 -1 424 -1 655 0 250 1 276 2 288 18 10 13 12 43 9 106 -2 58 0 87
7 88 6 0 46 0 89 -1 42 -1 77 2 78 7 0 4 2 38 3 75 3 65 2 67 -23 71 l-26 4
28 2 c20 1 27 6 27 21 0 18 10 25 33 21 4 0 7 4 7 9 0 6 14 24 30 40 17 16 30
32 30 35 0 10 30 37 30 28 0 -4 5 0 11 9 8 15 24 18 92 17 45 0 125 0 177 0
l96 1 2 82 c3 90 13 118 42 118 11 0 20 6 20 14 0 7 11 22 25 32 14 10 25 24
25 31 0 7 7 13 16 13 8 0 12 5 9 10 -3 6 1 10 9 10 9 0 16 5 16 10 0 6 7 10
15 10 8 0 15 7 15 15 0 8 7 15 15 15 19 0 25 28 23 120 -1 131 -10 119 90 122
l87 3 0 75 0 75 88 3 87 3 1 99 c0 127 0 220 0 265 -1 33 -3 35 -36 35 -28 0
-35 -4 -35 -20 0 -13 -7 -20 -19 -20 -10 0 -21 -9 -24 -20 -3 -11 -12 -20 -20
-20 -8 0 -17 -9 -20 -20 -3 -12 -14 -20 -26 -20 -14 0 -21 -6 -21 -20 0 -15
-7 -20 -25 -20 -16 0 -25 -6 -25 -15 0 -8 -7 -15 -15 -15 -9 0 -19 -8 -22 -17
-9 -23 -29 -43 -42 -43 -6 0 -11 -11 -11 -25 0 -16 -6 -25 -15 -25 -11 0 -15
-12 -15 -50 l0 -50 -90 0 -90 0 -1 -32 c-1 -18 0 -47 1 -65 2 -39 -11 -43
-120 -40 l-75 2 3 73 4 72 -42 0 c-40 0 -42 2 -38 25 3 15 -2 32 -14 45 -29
31 -19 56 21 52 31 -2 32 -1 29 30 -3 31 -1 33 27 29 67 -7 141 -10 163 -6 20
5 22 11 22 84 0 74 1 78 25 89 14 7 50 12 80 12 42 0 61 5 80 22 23 20 25 29
25 100 l0 78 -32 1 c-18 1 -60 2 -93 3 l-60 1 -3 95 -3 96 91 1 c50 0 94 4 97
7 4 3 7 47 8 97 0 69 4 93 15 98 8 5 87 8 174 9 108 0 161 4 166 12 4 6 7 47
7 91 1 44 3 83 6 86 3 2 39 6 79 7 40 1 78 5 85 9 8 5 12 59 12 183 1 97 3
179 5 183 3 4 80 6 173 6 92 -1 174 3 180 8 10 7 13 115 13 478 0 528 7 488
-80 483 -25 -2 -57 -1 -71 2 l-26 5 1 105 c1 60 -3 109 -9 113 -14 11 -174 10
-181 -1 -11 -17 -2 -403 9 -414 4 -4 38 -7 76 -8 38 -1 73 -4 77 -8 8 -9 12
-335 4 -348 -8 -12 -311 -19 -333 -8 -17 9 -18 36 -16 474 0 256 -2 468 -5
472 -4 3 -41 7 -84 8 -42 1 -80 2 -83 3 -3 0 -5 26 -6 56 0 31 -3 58 -7 62 -9
9 -164 11 -178 2 -7 -5 -13 -60 -15 -161 -3 -84 -6 -154 -7 -155 -2 -2 -43 -4
-93 -6 l-91 -2 2 244 c1 165 -3 248 -10 255 -6 7 -49 11 -107 10 l-97 -1 0 47
c0 26 -7 63 -15 83 -8 19 -11 37 -8 41 8 8 23 7 -340 12 -236 3 -322 7 -330
17 -9 9 -12 107 -12 367 0 195 -1 364 -3 375 -3 19 -10 20 -133 18 l-129 -2 0
119 0 119 -65 -2 c-59 -2 -66 0 -71 19 -3 12 -5 28 -4 35 2 8 2 37 1 64 l-1
50 -102 0 c-107 0 -236 10 -168 13 l35 2 0 150 c1 83 -2 151 -5 151 -3 1 -39
3 -80 4 -41 2 -84 4 -95 4 -19 1 -20 8 -19 121 0 102 -2 120 -15 121 -64 5
-355 3 -363 -2 -6 -4 -11 -37 -11 -73 0 -62 -2 -66 -24 -66 -12 0 -23 5 -23
10 0 6 -11 15 -25 20 -14 5 -25 16 -25 24 0 7 -8 20 -17 27 -11 10 -14 10 -9
2 4 -7 2 -13 -3 -13 -6 0 -11 9 -11 20 0 13 -7 20 -20 20 -12 0 -20 7 -20 18
0 29 -31 38 -118 37 -49 -1 -86 3 -91 9 -5 6 -7 40 -6 76 3 104 1 105 -113
104 l-97 -1 3 73 c3 72 3 74 -20 75 -13 0 -57 2 -98 2 l-75 2 -3 73 -3 72
-229 0 -230 0 0 -72 0 -73 -101 -2 c-56 -1 -104 -5 -107 -7 -2 -3 -5 -37 -6
-76 l-1 -70 -80 1 c-44 1 -85 1 -92 0 -9 -1 -13 -31 -15 -98 l-3 -98 -100 -3
c-75 -2 -102 -6 -108 -17 -4 -8 -17 -15 -27 -15 -12 0 -20 -7 -20 -16 0 -9
-11 -27 -25 -40 -14 -13 -26 -27 -26 -31 -4 -27 -26 -41 -55 -35 -30 7 -30 8
-29 67 0 33 -1 65 -2 70 -2 7 -71 10 -196 9 -105 -1 -194 -3 -197 -3 -3 -1 -5
-56 -5 -123 l0 -123 -80 -1 c-44 -1 -87 -2 -95 -3 -13 -1 -15 -25 -16 -151 -1
-83 -4 -154 -8 -158 -4 -4 -57 -7 -119 -7 l-111 0 0 -83 1 -82 -64 0 c-34 0
-63 -3 -64 -7 -1 -5 -2 -57 -2 -118 l-2 -110 -125 -2 c-69 -1 -130 -2 -137 -2
-8 -1 -11 -19 -8 -55 l3 -55 -32 1 c-17 1 -34 6 -38 11 -6 10 -28 -9 -84 -75
-12 -14 -24 -37 -28 -51 -3 -15 -11 -27 -16 -27 -6 0 -10 -22 -10 -50 l0 -50
-94 0 -94 0 -6 36 c-6 27 -14 38 -37 46 -18 6 -29 17 -29 28 0 25 -17 35 -60
36 -75 2 -70 -5 -70 98 0 109 -7 103 120 106 74 1 127 20 115 40 -3 5 3 15 15
22 11 7 20 18 20 25 0 6 9 14 20 18 11 3 19 11 17 17 -1 5 7 15 18 21 26 16
64 58 71 80 3 9 15 17 27 17 12 0 32 3 45 6 15 4 22 2 22 -8 0 -18 141 -18
164 1 8 7 19 10 25 7 5 -3 11 -1 13 6 3 8 33 13 86 15 99 4 126 23 148 105 15
56 24 401 10 415 -4 4 -41 7 -84 8 l-77 0 -1 178 -1 177 199 -3 c186 -4 200
-3 209 15 13 25 9 158 -5 158 -7 0 -7 3 1 8 7 5 13 39 15 87 3 74 5 80 26 83
14 2 22 10 22 23 0 10 3 18 8 18 24 -4 42 3 42 16 0 8 7 15 15 15 8 0 15 7 15
15 0 8 7 15 15 15 8 0 15 7 15 16 0 8 4 12 10 9 5 -3 15 5 22 19 6 14 17 26
24 26 8 0 14 15 16 38 l3 37 98 3 97 3 1 89 c0 50 0 110 0 135 0 25 0 106 0
181 l-1 135 -70 -2 c-38 -1 -71 -4 -71 -6z"/>
<path d="M4390 8768 c0 -10 -7 -18 -15 -18 -8 0 -15 -7 -15 -15 0 -8 -7 -15
-16 -15 -9 0 -18 -9 -21 -20 -3 -11 -13 -20 -22 -20 -14 0 -17 -9 -15 -41 1
-23 6 -44 12 -48 5 -3 11 -15 13 -26 3 -12 14 -21 27 -23 16 -3 22 -8 18 -19
-4 -9 1 -17 14 -20 11 -3 20 -12 20 -19 0 -25 50 -16 81 15 16 16 29 34 29 40
0 6 7 11 15 11 9 0 15 9 15 25 0 14 5 25 10 25 16 0 12 67 -5 74 -8 3 -15 12
-15 21 0 8 -6 15 -14 15 -8 0 -18 9 -21 20 -3 11 -10 20 -15 20 -4 0 -10 9
-13 19 -7 27 -67 27 -67 -1z"/>
<path d="M6083 8775 c-7 -8 -13 -17 -13 -21 0 -9 -41 -44 -52 -44 -5 0 -6 -5
-3 -10 3 -6 -6 -15 -21 -20 -23 -9 -26 -14 -20 -41 3 -18 6 -38 6 -45 0 -8 7
-14 16 -14 11 0 15 -6 11 -19 -4 -15 2 -21 23 -26 21 -5 30 -14 35 -36 6 -26
11 -29 46 -29 21 0 39 5 39 10 0 6 7 10 15 10 8 0 15 6 15 14 0 8 10 23 23 33
13 10 22 23 20 30 -2 6 1 14 6 18 20 12 13 90 -9 110 -11 10 -20 14 -21 9 0
-5 -4 1 -9 14 -5 12 -16 22 -25 22 -9 0 -15 9 -15 25 0 21 -5 25 -27 25 -16
-1 -34 -7 -40 -15z"/>
<path d="M7549 8568 c-23 -8 -25 -13 -26 -78 -1 -46 3 -75 12 -83 16 -16 160
-16 176 0 14 14 15 141 0 156 -13 13 -126 17 -162 5z"/>
<path d="M7048 8221 c-75 -78 -108 -118 -108 -134 0 -11 38 -46 44 -40 3 3 6
2 6 -3 0 -20 118 -132 142 -136 20 -2 45 16 122 88 l96 91 -14 34 c-8 19 -31
47 -50 62 -20 15 -36 33 -36 40 0 7 -16 21 -35 31 -19 10 -37 27 -40 37 -11
35 -40 19 -127 -70z"/>
<path d="M4250 8155 l0 -86 88 3 87 3 3 83 3 82 -91 0 -90 0 0 -85z"/>
<path d="M6110 8150 l0 -85 88 0 87 0 3 86 3 86 -91 -1 -90 0 0 -86z"/>
<path d="M7738 8232 c-21 -4 -19 20 -19 -306 0 -137 4 -253 8 -257 4 -4 44 -9
88 -11 l80 -3 0 -75 0 -75 -272 0 c-150 -1 -276 -4 -280 -8 -4 -5 -8 -85 -8
-178 0 -133 3 -173 14 -182 9 -8 72 -12 181 -13 92 0 172 -4 178 -8 9 -5 12
-113 12 -397 0 -304 3 -389 13 -390 6 -1 47 -2 89 -3 62 -2 79 1 85 13 4 9 8
88 9 176 1 88 2 167 3 176 1 13 13 16 72 15 39 0 76 2 82 6 7 4 12 40 12 85 1
44 4 84 8 90 4 5 39 11 79 12 44 1 75 7 80 14 4 7 6 52 5 100 -1 54 2 92 8 97
6 5 46 9 90 9 43 0 81 4 84 9 8 13 8 719 -1 727 -3 3 -44 7 -89 8 l-84 2 -1
88 c0 54 -5 91 -11 95 -7 4 -45 7 -85 7 -40 -1 -76 4 -80 10 -4 5 -8 45 -8 88
0 66 -2 77 -17 79 -39 3 -309 3 -325 0z"/>
<path d="M8640 7201 c0 -44 4 -82 9 -86 5 -3 38 -5 73 -5 107 1 98 -7 98 87
l0 83 -90 0 -90 0 0 -79z"/>
<path d="M8829 6709 c-14 -8 -13 -179 1 -193 6 -6 83 -11 175 -12 127 -2 168
1 178 11 16 15 15 171 -1 187 -11 11 -337 18 -353 7z"/>
<path d="M8084 6516 c-8 -24 -8 -172 0 -184 3 -6 42 -10 86 -9 44 0 84 -3 87
-7 4 -4 8 -47 8 -96 1 -49 4 -93 8 -96 4 -4 42 -8 84 -8 l78 -1 5 -90 5 -90
90 -2 c50 -1 96 2 103 6 10 6 13 64 12 247 -1 131 -1 257 -1 278 0 74 13 71
-288 71 -258 0 -271 -1 -277 -19z"/>
<path d="M9023 6322 c-13 -2 -24 -6 -24 -10 -6 -34 -5 -363 1 -373 9 -14 166
-17 181 -2 12 12 14 362 1 375 -9 9 -115 16 -159 10z"/>
<path d="M9430 5802 c-30 -2 -58 -9 -62 -15 -9 -14 -11 -129 -2 -151 5 -13 23
-16 95 -16 64 0 91 4 95 13 9 24 11 132 3 148 -10 19 -50 25 -129 21z"/>
<path d="M2180 1723 c0 -14 -6 -23 -15 -23 -8 0 -15 -4 -15 -10 0 -5 5 -10 11
-10 6 0 8 -8 4 -19 -3 -11 1 -25 10 -34 8 -9 15 -20 15 -26 0 -7 25 -11 63
-11 l63 0 -2 73 c-1 39 -2 75 -3 78 0 3 -30 6 -66 5 -61 0 -65 -1 -65 -23z"/>
<path d="M8210 1672 l0 -78 66 -1 c52 -1 67 2 71 15 4 10 10 20 15 23 5 3 6
31 2 62 l-7 57 -73 0 -74 0 0 -78z"/>
</g>
</svg>
